<svg width="16" height="16" viewBox="0 0 16 16" fill="none" xmlns="http://www.w3.org/2000/svg">
<rect width="16" height="16" fill="#5373FD"/>
<path d="M5.46633 6C5.98679 6 6.40089 6.09841 6.70864 6.29523C7.01639 6.48786 7.17027 6.7768 7.17027 7.16206C7.17027 7.44682 7.09333 7.68551 6.93946 7.87814C6.79011 8.06658 6.58419 8.20896 6.32169 8.30528C6.06373 8.3974 5.76729 8.44347 5.43239 8.44347L5.27625 7.95352C5.68809 7.95352 6.05241 8.00586 6.36921 8.11055C6.69054 8.21524 6.94398 8.366 7.12954 8.56281C7.31509 8.75544 7.40787 8.98786 7.40787 9.26005C7.40787 9.51131 7.35808 9.72487 7.25852 9.90075C7.16348 10.0724 7.03223 10.2127 6.86478 10.3216C6.70185 10.4263 6.5163 10.5038 6.30812 10.554C6.09993 10.6001 5.88496 10.6231 5.6632 10.6231H4V6H5.46633ZM5.58174 7.8907C5.77634 7.8907 5.91891 7.83626 6.00942 7.72739C6.10446 7.61851 6.15198 7.49498 6.15198 7.35678C6.15198 7.19766 6.09315 7.07831 5.97548 6.99874C5.86233 6.91918 5.70846 6.8794 5.51385 6.8794H4.98434V7.8907H5.58174ZM5.61568 9.77513C5.7605 9.77513 5.89175 9.75838 6.00942 9.72488C6.12709 9.68719 6.21987 9.63065 6.28775 9.55528C6.35564 9.47571 6.38958 9.3773 6.38958 9.26005C6.38958 9.12605 6.34885 9.02554 6.26739 8.95854C6.18592 8.88735 6.07957 8.8392 5.94832 8.81407C5.8216 8.78476 5.68809 8.7701 5.5478 8.7701H4.98434V9.77513H5.61568Z" fill="white"/>
<path d="M12.2763 6V10.6231H11.292V8.74498H9.05854V10.6231H8.0742V6H9.05854V7.86558H11.292V6H12.2763Z" fill="white"/>
</svg>
