<svg width="441" height="91" viewBox="0 0 441 91" fill="none" xmlns="http://www.w3.org/2000/svg">
<path opacity="0.502" fill-rule="evenodd" clip-rule="evenodd" d="M226.19 0.543146C226.191 0.819287 225.968 1.04394 225.691 1.04492C225.025 1.04729 224.359 1.05198 223.694 1.05897C223.418 1.06188 223.192 0.840387 223.189 0.56426C223.186 0.288133 223.408 0.0619325 223.684 0.0590274C224.351 0.0520093 225.019 0.0473006 225.688 0.0449251C225.964 0.0439445 226.189 0.267006 226.19 0.543146ZM230.215 0.564175C230.219 0.28806 230.446 0.0673625 230.722 0.0712334C231.395 0.0806745 232.07 0.092509 232.745 0.106761C233.021 0.112588 233.24 0.34112 233.234 0.617201C233.228 0.893282 233 1.11237 232.724 1.10654C232.051 1.09234 231.379 1.08054 230.708 1.07114C230.432 1.06726 230.211 0.840291 230.215 0.564175ZM219.165 0.641726C219.173 0.91776 218.955 1.14779 218.679 1.15551C218.003 1.17442 217.327 1.19569 216.653 1.21928C216.377 1.22894 216.145 1.01304 216.136 0.737071C216.126 0.461097 216.342 0.229549 216.618 0.219895C217.295 0.196218 217.973 0.174876 218.651 0.155897C218.927 0.148178 219.157 0.365691 219.165 0.641726ZM237.306 0.739495C237.317 0.463562 237.549 0.248593 237.825 0.259348C238.498 0.285575 239.172 0.31423 239.846 0.345338C240.122 0.358058 240.336 0.59199 240.323 0.86784C240.31 1.14369 240.076 1.357 239.8 1.34428C239.128 1.31328 238.457 1.28472 237.786 1.25859C237.51 1.24783 237.295 1.01543 237.306 0.739495ZM212.086 0.914018C212.101 1.18978 211.889 1.42505 211.613 1.43949C210.944 1.47457 210.275 1.51191 209.608 1.55148C209.332 1.56783 209.096 1.35761 209.079 1.08196C209.063 0.806297 209.273 0.569581 209.549 0.553235C210.219 0.513524 210.889 0.476058 211.561 0.440864C211.837 0.426416 212.072 0.638254 212.086 0.914018ZM244.309 1.08691C244.327 0.811331 244.564 0.602186 244.84 0.619774C245.508 0.662393 246.176 0.707442 246.846 0.754943C247.121 0.77449 247.329 1.01363 247.309 1.28908C247.29 1.56453 247.05 1.77198 246.775 1.75243C246.108 1.7051 245.442 1.66021 244.776 1.61774C244.501 1.60016 244.292 1.36249 244.309 1.08691ZM205.082 1.35321C205.103 1.62855 204.897 1.86881 204.622 1.88985C203.96 1.94047 203.298 1.99326 202.638 2.04821C202.363 2.0711 202.121 1.86658 202.098 1.59139C202.075 1.3162 202.28 1.07455 202.555 1.05165C203.217 0.996521 203.881 0.943548 204.546 0.892757C204.821 0.871717 205.061 1.07787 205.082 1.35321ZM251.338 1.61124C251.363 1.33619 251.606 1.13305 251.881 1.15752C252.554 1.21742 253.228 1.27982 253.903 1.34476C254.178 1.37121 254.379 1.61548 254.353 1.89036C254.326 2.16523 254.082 2.36661 253.807 2.34016C253.135 2.27546 252.463 2.21327 251.792 2.15358C251.517 2.12911 251.314 1.8863 251.338 1.61124ZM198.037 1.96435C198.064 2.23911 197.864 2.48422 197.589 2.51182C196.919 2.57915 196.25 2.64866 195.582 2.72033C195.307 2.74978 195.061 2.55108 195.031 2.27651C195.002 2.00195 195.2 1.75549 195.475 1.72604C196.145 1.65413 196.817 1.58438 197.489 1.51682C197.764 1.48923 198.009 1.68959 198.037 1.96435ZM258.397 2.31634C258.428 2.04199 258.676 1.84504 258.951 1.87644C259.61 1.95192 260.271 2.02986 260.932 2.11025C261.206 2.14359 261.401 2.39284 261.368 2.66696C261.334 2.94108 261.085 3.13627 260.811 3.10293C260.152 3.02283 259.494 2.94517 258.837 2.86995C258.563 2.83855 258.366 2.59069 258.397 2.31634ZM191.027 2.74C191.061 3.01403 190.867 3.26378 190.593 3.29782C189.93 3.38009 189.269 3.46445 188.609 3.55087C188.335 3.58672 188.084 3.39383 188.048 3.12002C188.013 2.84622 188.205 2.59519 188.479 2.55934C189.141 2.47263 189.805 2.38799 190.469 2.30545C190.743 2.27141 190.993 2.46596 191.027 2.74ZM265.338 3.1857C265.376 2.91221 265.628 2.72149 265.902 2.7597C266.566 2.85254 267.231 2.94789 267.897 3.04577C268.17 3.08594 268.359 3.33998 268.319 3.61319C268.279 3.88639 268.025 4.07531 267.752 4.03514C267.088 3.9376 266.426 3.84259 265.764 3.75008C265.49 3.71187 265.299 3.45919 265.338 3.1857ZM184.066 3.67489C184.107 3.94807 183.918 4.20224 183.645 4.24259C182.975 4.34152 182.307 4.44253 181.639 4.5456C181.367 4.58776 181.111 4.40071 181.069 4.1278C181.027 3.8549 181.214 3.59948 181.487 3.55732C182.156 3.45392 182.827 3.35258 183.499 3.25333C183.772 3.21297 184.026 3.40171 184.066 3.67489ZM272.328 4.23942C272.373 3.96699 272.63 3.78267 272.903 3.82774C273.572 3.93842 274.242 4.05169 274.912 4.16756C275.184 4.2146 275.367 4.47331 275.32 4.74542C275.272 5.01753 275.014 5.19999 274.742 5.15295C274.074 5.03749 273.406 4.92462 272.74 4.81433C272.467 4.76926 272.283 4.51186 272.328 4.23942ZM177.068 4.77947C177.115 5.05165 176.932 5.31008 176.66 5.35669C175.999 5.46986 175.339 5.585 174.681 5.7021C174.409 5.75047 174.15 5.56928 174.101 5.29741C174.053 5.02553 174.234 4.76593 174.506 4.71756C175.166 4.60009 175.828 4.48457 176.491 4.37104C176.763 4.32443 177.021 4.50729 177.068 4.77947ZM279.286 5.4675C279.338 5.19627 279.6 5.01845 279.871 5.07033C280.524 5.19521 281.177 5.32258 281.831 5.45246C282.102 5.50625 282.278 5.76942 282.224 6.04028C282.171 6.31113 281.907 6.4871 281.636 6.43331C280.985 6.30388 280.334 6.17696 279.683 6.05253C279.412 6.00065 279.234 5.73872 279.286 5.4675ZM170.165 6.03023C170.218 6.3013 170.041 6.56376 169.77 6.61646C169.114 6.74393 168.459 6.8733 167.806 7.00454C167.536 7.05895 167.272 6.88359 167.218 6.61287C167.163 6.34214 167.339 6.07856 167.609 6.02415C168.265 5.89249 168.921 5.76271 169.579 5.63484C169.85 5.58214 170.112 5.75917 170.165 6.03023ZM286.153 6.85659C286.211 6.58673 286.477 6.41544 286.747 6.47401C287.404 6.61658 288.062 6.76172 288.72 6.90943C288.989 6.96991 289.159 7.23736 289.098 7.5068C289.038 7.77624 288.77 7.94563 288.501 7.88515C287.845 7.73795 287.19 7.59333 286.535 7.45126C286.265 7.39269 286.094 7.12645 286.153 6.85659ZM163.228 7.44793C163.287 7.71776 163.115 7.9841 162.846 8.04281C162.188 8.18596 161.531 8.33098 160.876 8.47783C160.607 8.53823 160.339 8.36876 160.279 8.09931C160.218 7.82986 160.388 7.56245 160.657 7.50204C161.314 7.35474 161.973 7.20927 162.633 7.06567C162.903 7.00696 163.169 7.1781 163.228 7.44793ZM293.061 8.43357C293.127 8.16525 293.397 8.00064 293.665 8.0659C294.326 8.22662 294.988 8.38997 295.649 8.55596C295.917 8.62314 296.08 8.89472 296.013 9.16257C295.946 9.43042 295.674 9.5931 295.406 9.52592C294.747 9.36051 294.088 9.19773 293.429 9.03757C293.161 8.97231 292.996 8.70189 293.061 8.43357ZM156.36 9.0099C156.424 9.27838 156.259 9.54838 155.991 9.61295C155.343 9.76875 154.697 9.92629 154.052 10.0855C153.784 10.1518 153.513 9.98811 153.446 9.72002C153.38 9.45194 153.544 9.18093 153.812 9.11472C154.459 8.95497 155.107 8.79695 155.757 8.64068C156.025 8.57611 156.295 8.74141 156.36 9.0099ZM299.888 10.1703C299.959 9.90371 300.234 9.74578 300.5 9.81761C301.142 9.99056 301.785 10.166 302.428 10.344C302.694 10.4177 302.85 10.6932 302.776 10.9593C302.703 11.2254 302.427 11.3814 302.161 11.3078C301.52 11.1304 300.88 10.9555 300.24 10.7832C299.974 10.7114 299.816 10.437 299.888 10.1703ZM149.528 10.7199C149.598 10.9869 149.438 11.2604 149.171 11.3307C148.517 11.5029 147.865 11.6768 147.214 11.8524C146.947 11.9244 146.673 11.7666 146.601 11.5C146.529 11.2333 146.687 10.9589 146.954 10.887C147.606 10.7108 148.261 10.5364 148.917 10.3637C149.184 10.2934 149.457 10.4528 149.528 10.7199ZM306.638 12.0644C306.716 11.7996 306.994 11.6483 307.259 11.7266C307.905 11.9173 308.55 12.1106 309.197 12.3065C309.461 12.3866 309.61 12.6658 309.53 12.93C309.45 13.1943 309.171 13.3436 308.907 13.2635C308.263 13.0683 307.619 12.8757 306.976 12.6856C306.711 12.6073 306.56 12.3292 306.638 12.0644ZM142.706 12.5824C142.782 12.8479 142.628 13.1247 142.363 13.2007C141.72 13.3845 141.079 13.5699 140.439 13.757C140.174 13.8345 139.897 13.6824 139.819 13.4174C139.742 13.1524 139.894 12.8747 140.159 12.7972C140.8 12.6096 141.443 12.4236 142.088 12.2392C142.353 12.1633 142.63 12.3169 142.706 12.5824ZM313.423 14.147C313.508 13.8842 313.79 13.7397 314.052 13.8244C314.701 14.0333 315.35 14.2449 315.999 14.459C316.262 14.5455 316.404 14.8282 316.318 15.0905C316.231 15.3527 315.948 15.4952 315.686 15.4087C315.039 15.1953 314.392 14.9844 313.746 14.7762C313.483 14.6916 313.338 14.4098 313.423 14.147ZM135.987 14.5688C136.068 14.8327 135.92 15.1125 135.656 15.1939C135.007 15.3942 134.359 15.5961 133.713 15.7995C133.45 15.8824 133.169 15.7362 133.086 15.4728C133.003 15.2094 133.15 14.9286 133.413 14.8457C134.061 14.6417 134.71 14.4392 135.362 14.2383C135.626 14.157 135.905 14.3049 135.987 14.5688ZM320.096 16.3722C320.187 16.1114 320.472 15.9737 320.733 16.0646C321.36 16.2833 321.988 16.5045 322.616 16.7281C322.876 16.8208 323.012 17.1068 322.919 17.3669C322.827 17.627 322.541 17.7628 322.281 17.6702C321.655 17.4473 321.029 17.2269 320.404 17.0089C320.143 16.918 320.005 16.6329 320.096 16.3722ZM129.221 16.7213C129.307 16.9834 129.165 17.2663 128.903 17.3531C128.266 17.5639 127.631 17.7761 126.998 17.9898C126.736 18.0781 126.453 17.9375 126.364 17.6759C126.276 17.4142 126.417 17.1306 126.678 17.0423C127.313 16.828 127.95 16.6151 128.589 16.4037C128.851 16.3169 129.134 16.4591 129.221 16.7213ZM326.69 18.7454C326.787 18.4868 327.075 18.3558 327.334 18.4528C327.964 18.6891 328.594 18.9279 329.225 19.1692C329.483 19.2679 329.612 19.557 329.513 19.8149C329.415 20.0728 329.126 20.2019 328.868 20.1032C328.239 19.8626 327.611 19.6246 326.983 19.3891C326.724 19.2921 326.593 19.0039 326.69 18.7454ZM122.588 18.9799C122.68 19.2403 122.543 19.5259 122.283 19.6179C121.65 19.8414 121.019 20.0664 120.39 20.2926C120.13 20.3861 119.844 20.2512 119.75 19.9913C119.657 19.7315 119.792 19.4451 120.051 19.3516C120.682 19.1247 121.315 18.8992 121.95 18.675C122.21 18.583 122.496 18.7195 122.588 18.9799ZM333.312 21.3051C333.415 21.0489 333.706 20.9247 333.962 21.0277C334.595 21.2819 335.228 21.5387 335.861 21.7982C336.117 21.9029 336.239 22.1949 336.134 22.4504C336.03 22.706 335.738 22.8282 335.482 22.7236C334.851 22.4649 334.22 22.2089 333.59 21.9555C333.333 21.8525 333.209 21.5614 333.312 21.3051ZM115.918 21.4001C116.015 21.6586 115.884 21.9469 115.626 22.044C114.995 22.2808 114.367 22.5187 113.741 22.7579C113.483 22.8565 113.194 22.7272 113.096 22.4693C112.997 22.2113 113.126 21.9223 113.384 21.8238C114.012 21.5839 114.642 21.3453 115.274 21.1079C115.532 21.0108 115.821 21.1416 115.918 21.4001ZM109.364 23.9243C109.466 24.1809 109.341 24.4717 109.084 24.5737C108.468 24.8187 107.854 25.0647 107.243 25.3118C106.987 25.4153 106.695 25.2916 106.592 25.0356C106.489 24.7795 106.612 24.4881 106.868 24.3847C107.482 24.1369 108.097 23.8902 108.714 23.6445C108.971 23.5425 109.262 23.6677 109.364 23.9243ZM339.823 23.9968C339.932 23.743 340.226 23.6254 340.48 23.7342C341.089 23.9953 341.699 24.2589 342.308 24.5248C342.561 24.6353 342.677 24.93 342.567 25.1831C342.456 25.4362 342.161 25.5518 341.908 25.4414C341.301 25.1763 340.693 24.9136 340.086 24.6533C339.832 24.5445 339.715 24.2506 339.823 23.9968ZM102.81 26.594C102.917 26.8486 102.797 27.1416 102.543 27.2486C101.92 27.5102 101.299 27.7728 100.681 28.0363C100.427 28.1447 100.134 28.0265 100.025 27.7725C99.917 27.5185 100.035 27.2248 100.289 27.1165C100.909 26.8522 101.531 26.5889 102.155 26.3266C102.41 26.2197 102.703 26.3394 102.81 26.594ZM346.225 26.8137C346.339 26.5624 346.636 26.4514 346.887 26.5658C347.498 26.8441 348.11 27.1249 348.721 27.4081C348.972 27.5242 349.081 27.8214 348.965 28.0719C348.849 28.3225 348.552 28.4316 348.301 28.3156C347.691 28.0332 347.082 27.7533 346.473 27.4759C346.221 27.3615 346.11 27.065 346.225 26.8137ZM96.3442 29.3713C96.4559 29.6238 96.3417 29.9191 96.0892 30.0308C95.4827 30.299 94.8786 30.568 94.2769 30.8379C94.0249 30.9509 93.729 30.8383 93.616 30.5863C93.503 30.3343 93.6157 30.0385 93.8677 29.9255C94.471 29.6549 95.0767 29.3851 95.6847 29.1162C95.9373 29.0046 96.2326 29.1187 96.3442 29.3713ZM352.648 29.8127C352.768 29.564 353.067 29.4596 353.316 29.5796C353.929 29.8754 354.542 30.1738 355.156 30.4746C355.404 30.5962 355.507 30.8957 355.385 31.1437C355.264 31.3916 354.964 31.4941 354.716 31.3726C354.104 31.0726 353.493 30.7752 352.881 30.4803C352.632 30.3603 352.528 30.0614 352.648 29.8127ZM89.9061 32.2798C90.0224 32.5302 89.9137 32.8275 89.6633 32.9439C89.049 33.2292 88.4374 33.5152 87.8284 33.802C87.5786 33.9196 87.2807 33.8125 87.1631 33.5626C87.0454 33.3128 87.1526 33.0149 87.4024 32.8973C88.013 32.6098 88.6262 32.323 89.242 32.0369C89.4925 31.9206 89.7898 32.0293 89.9061 32.2798ZM359.004 32.9523C359.129 32.7062 359.43 32.6084 359.676 32.7337C360.264 33.0333 360.852 33.3352 361.441 33.6394C361.686 33.7662 361.782 34.0679 361.655 34.3132C361.529 34.5585 361.227 34.6545 360.982 34.5277C360.395 34.2244 359.809 33.9234 359.222 33.6248C358.976 33.4994 358.878 33.1983 359.004 32.9523ZM83.5413 35.2968C83.6621 35.5451 83.5588 35.8443 83.3105 35.9652C82.7148 36.2552 82.1217 36.5457 81.5313 36.8368C81.2837 36.9589 80.9839 36.8571 80.8618 36.6095C80.7397 36.3618 80.8415 36.062 81.0891 35.9399C81.681 35.6481 82.2756 35.3568 82.8729 35.0661C83.1212 34.9452 83.4204 35.0485 83.5413 35.2968ZM365.182 36.17C365.312 35.9267 365.615 35.8352 365.858 35.9656C366.448 36.2818 367.038 36.6003 367.628 36.9212C367.871 37.0531 367.96 37.3567 367.828 37.5993C367.696 37.8419 367.393 37.9316 367.15 37.7997C366.562 37.4797 365.974 37.1621 365.386 36.847C365.143 36.7165 365.051 36.4134 365.182 36.17ZM77.2143 38.4372C77.3396 38.6833 77.2417 38.9843 76.9956 39.1096C76.3913 39.4174 75.7899 39.7256 75.1916 40.0341C74.9461 40.1606 74.6446 40.0643 74.518 39.8188C74.3915 39.5734 74.4878 39.2719 74.7333 39.1453C75.3331 38.836 75.936 38.527 76.5419 38.2185C76.788 38.0932 77.089 38.1911 77.2143 38.4372ZM371.376 39.5634C371.512 39.3228 371.817 39.2376 372.057 39.3731C372.649 39.7061 373.24 40.0415 373.832 40.3793C374.071 40.5162 374.155 40.8217 374.018 41.0614C373.881 41.3012 373.575 41.3846 373.336 41.2477C372.746 40.9108 372.156 40.5764 371.567 40.2444C371.326 40.1089 371.241 39.804 371.376 39.5634ZM70.968 41.6778C71.0976 41.9217 71.0051 42.2244 70.7612 42.354C70.1782 42.664 69.5982 42.9743 69.0214 43.2846C68.7782 43.4155 68.475 43.3244 68.3442 43.0812C68.2133 42.838 68.3044 42.5348 68.5476 42.404C69.1259 42.0929 69.7073 41.7819 70.2918 41.4711C70.5356 41.3415 70.8384 41.434 70.968 41.6778ZM377.588 43.1352C377.728 42.8974 378.035 42.8186 378.272 42.959C378.84 43.2944 379.408 43.632 379.976 43.9718C380.213 44.1136 380.29 44.4207 380.148 44.6576C380.006 44.8946 379.699 44.9717 379.462 44.8299C378.896 44.491 378.33 44.1544 377.764 43.82C377.526 43.6795 377.447 43.3729 377.588 43.1352ZM64.7432 45.0483C64.8771 45.2898 64.7899 45.5941 64.5484 45.728C63.9562 46.0565 63.3674 46.3849 62.7822 46.7133C62.5414 46.8484 62.2366 46.7627 62.1015 46.5219C61.9664 46.2811 62.052 45.9763 62.2929 45.8412C62.8795 45.512 63.4697 45.1828 64.0635 44.8535C64.305 44.7196 64.6093 44.8068 64.7432 45.0483ZM383.527 46.7117C383.672 46.4767 383.98 46.4039 384.215 46.549C384.781 46.8982 385.346 47.2498 385.912 47.6036C386.147 47.75 386.218 48.0585 386.071 48.2927C385.925 48.5268 385.616 48.598 385.382 48.4516C384.818 48.0987 384.254 47.7481 383.69 47.3998C383.455 47.2547 383.382 46.9467 383.527 46.7117ZM58.6432 48.4905C58.7812 48.7297 58.6993 49.0355 58.4602 49.1736C57.8827 49.507 57.309 49.8402 56.739 50.1731C56.5005 50.3123 56.1943 50.2319 56.0551 49.9934C55.9158 49.755 55.9963 49.4488 56.2347 49.3095C56.8061 48.9759 57.3812 48.6418 57.9601 48.3076C58.1993 48.1695 58.5051 48.2514 58.6432 48.4905ZM389.469 50.4498C389.619 50.2177 389.928 50.1508 390.161 50.3004C390.727 50.6658 391.294 51.0334 391.861 51.4033C392.093 51.5542 392.158 51.864 392.007 52.0953C391.856 52.3266 391.546 52.3918 391.315 52.2409C390.75 51.8719 390.184 51.5053 389.619 51.141C389.387 50.9914 389.32 50.6819 389.469 50.4498ZM52.5084 52.0948C52.6506 52.3315 52.5741 52.6387 52.3374 52.7809C51.761 53.1274 51.1888 53.4732 50.6209 53.8184C50.3849 53.9618 50.0773 53.8868 49.9339 53.6508C49.7905 53.4149 49.8655 53.1073 50.1015 52.9639C50.6708 52.6178 51.2444 52.2711 51.8223 51.9238C52.0589 51.7816 52.3661 51.8581 52.5084 52.0948ZM395.424 54.3577C395.578 54.1285 395.889 54.0676 396.118 54.2216C396.686 54.6032 397.254 54.9872 397.822 55.3735C398.05 55.5287 398.11 55.8397 397.954 56.0681C397.799 56.2964 397.488 56.3557 397.26 56.2004C396.693 55.8151 396.126 55.4322 395.56 55.0516C395.331 54.8976 395.27 54.5869 395.424 54.3577ZM46.5626 55.7282C46.7089 55.9624 46.6376 56.2709 46.4034 56.4172C45.8138 56.7854 45.2293 57.1527 44.6498 57.5188C44.4164 57.6663 44.1075 57.5966 43.9601 57.3631C43.8126 57.1297 43.8822 56.8208 44.1157 56.6733C44.6966 56.3063 45.2826 55.9382 45.8736 55.569C46.1078 55.4227 46.4163 55.494 46.5626 55.7282ZM401.251 58.3415C401.41 58.1152 401.721 58.06 401.948 58.2182C402.488 58.5959 403.028 58.9757 403.568 59.3576C403.794 59.517 403.847 59.829 403.688 60.0545C403.529 60.28 403.217 60.3336 402.991 60.1742C402.452 59.7932 401.913 59.4144 401.375 59.0378C401.148 58.8795 401.093 58.5678 401.251 58.3415ZM40.5464 59.5498C40.6968 59.7814 40.6309 60.091 40.3994 60.2414C39.8455 60.6011 39.2967 60.9594 38.7532 61.3162C38.5223 61.4678 38.2123 61.4035 38.0608 61.1726C37.9093 60.9417 37.9736 60.6318 38.2044 60.4802C38.7493 60.1226 39.2994 59.7634 39.8547 59.4028C40.0863 59.2523 40.396 59.3182 40.5464 59.5498ZM406.925 62.3734C407.087 62.1499 407.399 62.1003 407.623 62.2625C408.164 62.6553 408.705 63.0502 409.246 63.4473C409.469 63.6107 409.517 63.9236 409.353 64.1462C409.19 64.3688 408.877 64.4169 408.654 64.2535C408.115 63.8574 407.575 63.4635 407.035 63.0717C406.812 62.9095 406.762 62.5968 406.925 62.3734ZM34.6518 63.4414C34.8063 63.6703 34.7459 63.9811 34.517 64.1356C33.9526 64.5165 33.3945 64.8952 32.8428 65.2716C32.6147 65.4272 32.3036 65.3685 32.148 65.1403C31.9924 64.9122 32.0511 64.6012 32.2792 64.4455C32.8323 64.0682 33.3918 63.6885 33.9577 63.3066C34.1866 63.1522 34.4973 63.2125 34.6518 63.4414ZM412.606 66.565C412.772 66.3445 413.086 66.3004 413.306 66.4665C413.848 66.8746 414.39 67.2849 414.932 67.6973C415.151 67.8646 415.194 68.1783 415.027 68.398C414.859 68.6178 414.546 68.6603 414.326 68.493C413.785 68.0816 413.245 67.6723 412.705 67.2653C412.484 67.0991 412.44 66.7856 412.606 66.565ZM28.9134 67.3771C29.0719 67.6033 29.017 67.9151 28.7909 68.0736C28.212 68.4793 27.6412 68.8817 27.0786 69.2807C26.8534 69.4404 26.5413 69.3872 26.3815 69.162C26.2218 68.9367 26.275 68.6246 26.5002 68.4649C27.0643 68.0649 27.6366 67.6615 28.2169 67.2547C28.4431 67.0962 28.7549 67.151 28.9134 67.3771ZM418.296 70.9187C418.466 70.7011 418.78 70.6624 418.997 70.8324C419.535 71.2523 420.073 71.6743 420.61 72.0986C420.827 72.2696 420.864 72.584 420.693 72.8008C420.522 73.0176 420.208 73.0547 419.991 72.8837C419.454 72.4604 418.918 72.0394 418.382 71.6205C418.164 71.4505 418.126 71.1363 418.296 70.9187ZM23.1228 71.5049C23.2855 71.728 23.2365 72.0408 23.0134 72.2035C22.4803 72.5922 21.9559 72.9767 21.4404 73.3568C21.2181 73.5206 20.9051 73.4733 20.7412 73.251C20.5773 73.0287 20.6247 72.7157 20.847 72.5518C21.3639 72.1707 21.8897 71.7852 22.4243 71.3954C22.6474 71.2327 22.9602 71.2818 23.1228 71.5049ZM423.761 75.2504C423.935 75.0356 424.249 75.0022 424.464 75.1758C424.978 75.5911 425.492 76.0085 426.007 76.4278C426.221 76.6024 426.253 76.9174 426.078 77.1313C425.903 77.3453 425.589 77.3773 425.375 77.2028C424.862 76.7843 424.349 76.3679 423.836 75.9536C423.621 75.78 423.588 75.4652 423.761 75.2504ZM17.4223 75.7343C17.5893 75.9542 17.5464 76.2679 17.3265 76.4349C16.8059 76.8304 16.2966 77.2196 15.7986 77.6022C15.5796 77.7705 15.2657 77.7294 15.0974 77.5104C14.9292 77.2914 14.9703 76.9775 15.1893 76.8093C15.6887 76.4255 16.1996 76.0352 16.7217 75.6386C16.9416 75.4716 17.2552 75.5144 17.4223 75.7343ZM429.16 79.6749C429.337 79.463 429.652 79.4346 429.864 79.6116C430.379 80.0412 430.893 80.4729 431.408 80.9066C431.619 81.0846 431.646 81.4 431.468 81.6112C431.29 81.8223 430.975 81.8492 430.764 81.6713C430.25 81.2385 429.737 80.8078 429.223 80.3792C429.011 80.2022 428.983 79.8869 429.16 79.6749ZM11.8355 80.0569C12.0071 80.2732 11.9709 80.5877 11.7546 80.7593C11.2445 81.1642 10.7506 81.5586 10.2731 81.9423C10.0579 82.1153 9.74314 82.081 9.57017 81.8658C9.39719 81.6505 9.43146 81.3358 9.64671 81.1628C10.1257 80.7779 10.6212 80.3821 11.133 79.976C11.3493 79.8043 11.6638 79.8405 11.8355 80.0569ZM434.564 84.2504C434.744 84.0412 435.06 84.0179 435.269 84.1982C435.784 84.6423 436.299 85.0885 436.814 85.5367C437.022 85.718 437.044 86.0338 436.863 86.2421C436.682 86.4504 436.366 86.4723 436.157 86.291C435.644 85.8438 435.13 85.3986 434.616 84.9556C434.407 84.7752 434.383 84.4595 434.564 84.2504ZM6.40782 84.4531C6.58469 84.6652 6.55615 84.9805 6.34408 85.1573C5.7714 85.6349 5.23831 86.0838 4.74542 86.5022C4.53489 86.6809 4.21936 86.6551 4.04067 86.4445C3.86197 86.234 3.88778 85.9185 4.0983 85.7398C4.59337 85.3196 5.12867 84.8689 5.7036 84.3894C5.91567 84.2125 6.23096 84.241 6.40782 84.4531ZM1.08094 89.0198C1.26562 89.2251 1.24892 89.5412 1.04363 89.7259C0.809589 89.9365 0.633367 90.0969 0.515912 90.2045C0.457185 90.2583 0.413149 90.2988 0.383925 90.3258L0.351211 90.3561L0.341309 90.3653" fill="white"/>
</svg>
